<svg xmlns="http://www.w3.org/2000/svg" version="1.1" xmlns:xlink="http://www.w3.org/1999/xlink" xmlns:svgjs="http://svgjs.dev/svgjs" width="2000" height="1668" viewBox="0 0 2000 1668"><g transform="matrix(1,0,0,1,-1.526429989311282,0.6765506728028186)"><svg viewBox="0 0 296 247" data-background-color="#000000" preserveAspectRatio="xMidYMid meet" height="1668" width="2000" xmlns="http://www.w3.org/2000/svg" xmlns:xlink="http://www.w3.org/1999/xlink"><g id="tight-bounds" transform="matrix(1,0,0,1,0.2259116384180686,-0.09997365579206985)"><svg viewBox="0 0 295.54817672316386 247.2" height="247.2" width="295.54817672316386"><g><svg viewBox="0 0 295.54817672316386 247.2" height="247.2" width="295.54817672316386"><g><svg viewBox="0 0 295.54817672316386 247.2" height="247.2" width="295.54817672316386"><g id="textblocktransform"><svg viewBox="0 0 295.54817672316386 247.2" height="247.2" width="295.54817672316386" id="textblock"><g><svg viewBox="0 0 295.54817672316386 247.2" height="247.2" width="295.54817672316386"><path d="M294.856 53.02C293.467 27.36 289.507 20.227 289.507 20.227 277.349-6.202 262.177-0.506 248.546 3.292 224.481 3.446 200.514 9.091 176.504 12.119 126.109 12.581 75.284 4.986 25.139 23.717 20.429 29.464-4.887 24.846 0.838 56.304 2.338 69.39 7.813 83.913 7.646 95.922 8.396 98.026 9.438 93.202 9.883 96.23 11.439 104.39 13.982 100.541 16.066 105.365 13.162 118.246 15.246 128.971 17.233 140.21 13.732 143.135 9.244 141.749 7.229 151.449 7.021 158.479 5.895 157.145 4.659 156.837 3.756 156.632 1.935 157.402 2.241 159.608 3.283 167.152-1.191 171.514 1.616 178.904-0.315 186.91 2.95 193.838 2.505 202.511 2.45 204.255 2.755 205.744 3.242 206.154 5.395 208.361 2.255 212.672 2.589 217.342 24.681 249.262 48.648 227.195 71.282 241.872 77.16 231.608 72.741 245.516 75.089 243.36 76.923 240.846 78.257 251.263 80.327 245.362 80.647 243.668 80.161 239.665 81.3 240.435 81.897 240.846 82.425 240.743 82.509 238.382 82.634 234.841 81.536 237.048 81.244 235.201 84.398 225.861 83.62 248.081 86.58 247.158 86.441 244.438 85.579 240.538 87.344 241.051 89.095 237.151 89.15 233.918 90.706 242.693 90.762 244.592 91.04 245.926 91.485 246.85 96.348 237.305 101.183 250.237 106.282 245.926 109.408 241.205 112.409 248.492 115.577 246.696 116.689 245.259 117.814 242.693 118.884 247.004 131.987 247.928 145.95 244.079 158.372 247.158 191.566 241.41 227.038 249.518 262.038 241.923 270.291 238.998 278.864 234.841 286.909 231.506 286.909 231.506 293.425 222.371 293.425 181.316S294.815 145.393 295.023 112.703C295.231 80.013 296.204 78.679 294.815 53.02Z" opacity="1" fill="#db6416" data-fill-palette-color="tertiary"></path><g transform="matrix(1,0,0,1,55.76832,26.230666666666668)"><svg width="184.01153672316386" viewBox="3 -35.4 33.45 35.4" height="194.73866666666666" data-palette-color="#111111"><path d="M15 0L3.5 0 3.5-27.35 3-32.35 3.5-35.4 14.5-35.4 14.5-21.85 24.95-21.85 24.95-35.4 35.95-35.4 35.95-16.6 36.45-13.15 36.45 0 24.95 0 24.95-12.7 14.5-12.7 14.5-9.2 15 0Z" opacity="1" transform="matrix(1,0,0,1,0,0)" fill="#111111" class="wordmark-text-0" data-fill-palette-color="quaternary" id="text-0"></path></svg></g></svg></g></svg></g></svg></g><g></g></svg></g><defs></defs></svg><rect width="295.54817672316386" height="247.2" fill="none" stroke="none" visibility="hidden"></rect></g></svg></g></svg>